<?xml version="1.0" encoding="UTF-8"?><svg id="Layer_1" xmlns="http://www.w3.org/2000/svg" viewBox="0 0 658 724"><path d="M248.29,236.28l-1.33,5.18c1.82,27.55-2.28,57.87,0,85.09.16,1.95.04,4.15,1.77,5.5l74.56,43.19,3.96.6,52.3-29.78c3.33-2.79-.12-6.42-.47-9.63-3.54-32.76,36.42-51.04,57.94-25.94,21.98,25.64-4.21,63.3-36.99,51.99-3.86-1.33-9.22-6.64-12.04-6.05l-57.1,32.96-5.33,1.59-89.58-51.45-1.54-2.46-.94-100.06-77.81-45.19-6.49-5.51.22-104.39c.62-2.21,7.47-5.64,9.9-7.08,23.27-13.79,51.11-31.39,75-43,3.01-1.46,5.98-4.05,9.38-2.06l87.32,50.7,1.52,2.48.95,97.05,78.06,45,78.95-44.98.49-89.52c-.48-2.54-7.15-5.73-9.71-7.29-14.34-8.76-29.42-16.54-43.96-24.98-5.06,1.7-7.16,5.86-12.65,7.96-36.47,13.97-62.98-33.57-32.6-56.6,22.61-17.14,55.5,1.12,52.81,28.8-.26,2.69-2.59,6.04-1,8.15,19.68,12.07,40.84,22.07,59.6,35.47l.53,101.51-1.13,3.87-90.47,52.6-86.01-48-78.12,44.3ZM407.73,16.24c-24.3,4.57-19.1,45.16,10.33,38.33,21.78-5.05,15.84-43.24-10.33-38.33ZM162.16,88.16l-.17,90.35c.49,2.57,12.22,8.8,15.34,10.66,20.73,12.39,42.18,23.8,63.17,35.76l79.02-44.92.49-89.52-1.02-1.98-78.41-44.5-78.42,44.15ZM408.76,312.26c-25.53,3.31-20.33,44.41,8.51,38.51,21.76-4.45,18.03-41.96-8.51-38.51Z"/><path d="M216,542.5c-48.88,33.35-115.51,1.85-103.74-61.74,8.79-47.51,67.28-61.25,101.81-32.08-4.25,18.06-11.38,7.12-21.37,3.13-29.36-11.73-62.37,2.06-64.74,35.65-1.24,17.52,1.33,33.95,15.57,45.52,15.08,12.26,42.8,12.49,58.48,1.52v-24l-1.5-1.5h-19c-2.93-2.9-.98-8.14-1.5-12h36v45.5Z"/><path d="M354,584h-14v-114.01c13.33-1.68,10.48,2.23,14.5,11.99,12.71-15.9,40.74-18.82,52.3-.28,9.22,14.79,9.82,39.98,1.74,55.34-10.08,19.17-36.19,25.56-52.55,10.44l-2,1.02v35.5ZM371.74,480.24c-5.03.85-16.21,8.46-17.49,13.51-1.14,4.46-.92,32.28-.27,37.78,1.03,8.66,13.68,13.84,21.47,13.51,20.73-.87,24.76-22.81,23.59-39.57-1.15-16.56-9.06-28.32-27.3-25.22Z"/><path d="M434,470c3.11.37,8.11-.98,10.59.91,2.81,2.14,1.9,11.13,3.91,11.07,13.39-16.01,40.85-18.89,52.91.11,6.64,10.45,7.58,25.31,6.62,37.45-2.35,29.79-33.4,47.91-58.05,27.95l-1.98,1.01v35.5c-4.44-.62-10.53,1.56-14-1.5v-112.5ZM466.76,480.26c-5.98.87-16.49,7.79-18.32,13.68-1.21,3.9-1.08,32.41-.46,37.58.97,8.15,13.12,13.7,20.52,13.55,22.23-.45,25.96-22.8,24.54-40.61-1.26-15.84-9.03-26.72-26.28-24.2Z"/><path d="M575.59,514.44c5.05,4.1,6.76,10.62,6.29,16.92-2.06,27.77-43.29,31.02-59.43,13.65,4.6-14.4,11.2-4.07,19.51-1.48,11.59,3.61,30.34-1.31,25.58-16.59-3.93-12.63-40.48-8.19-43.46-30.53-3.2-23.99,25.68-31.73,44.19-25.19,2.86,1.01,12.16,5.31,11.32,8.78-2.56,10.56-14.09.95-21.21.12-9.98-1.16-25.51,4.13-19.66,16.65,3.21,6.87,28.54,10.92,36.86,17.67Z"/><path d="M250.6,632.38c-3.14-2.89-11.66-9.19-10.45-13.66.44-1.62,16.67-17.34,18.51-17.51,6.06.82,13.09,13.86,17.87,14.77l96.04.08c6.52.42,14.46-15.19,19.97-15.04,1.74.05,19.14,17.47,19.14,19.48-1.68,3.51-16.74,19.16-19.16,19.16-7.96-3.59-11.73-14.77-21-15.66l-92.94.06c-6.35.96-13.48,14.68-19.14,14.96-4.47-.07-6.38-4.39-8.82-6.63ZM253.36,616.35c-1.03,1.18-2.64,3.34-2.25,4.94l7.53,7.63c10.28-6.68,10.28-9.46.73-16.86-.62-.11-5.42,3.61-6.01,4.28ZM397.38,624.37c1.18-1.34,3.75-2,3.46-4.73-7.39-9.52-9.36-9.45-16.7.05-.87,1.63,7.14,8.77,7.74,8.86,3.01.42,4-2.49,5.5-4.19Z"/><path d="M284.89,470.11c1.39,18.95-1.74,11.83-13.39,12.89-9.64.88-17.45,10.19-18.5,19.5-1.78,15.86,1.45,34.67-.14,50.86-.95,2.89-11.12,1.6-13.92,1.2l-.5-83.63c15.39-4.68,10.89,3.96,14.06,14.06,7.14-12.21,17.77-19.48,32.4-14.89Z"/><polygon points="301.64 470.14 313.36 470.14 315 472.5 314.56 554.06 301.64 554.86 300 552.5 300.44 470.94 301.64 470.14"/><polygon points="319.64 249.14 331.36 249.14 333 251.5 332.56 333.06 319.64 333.86 318 331.5 318.44 249.94 319.64 249.14"/><path d="M90,470v83.5c-3.07,2.44-11.05,2.41-14,0v-83.5h14Z"/><path d="M298,700h-6.01s0-3.99,0-3.99l10.59.97-.75,13.86c-14.27,7.84-32.52.59-30.84-17.34,1.38-14.7,20.38-20.28,31-10.98l-1.55,2.48c-3.45-.18-5.36-2.65-8.94-3.02-21.04-2.19-21.54,29.84-.02,28.04,7.56-.63,6.81-3.19,6.51-10.01Z"/><path d="M490,712.5l-2.49,1.5-2.96-3.04c-23.27,14.35-23.31-32.36.44-20.96,1.7-3.11-.13-5.6-.05-8.47.2-6.74,5.06-4.6,5.06-3.03v34ZM476.73,692.2c-9.31,2.05-5.22,25.16,6.26,16.29,2.7-2.08,2.62-9.68,2.02-12.99-.64-3.47-5.28-3.96-8.27-3.3Z"/><path d="M299.31,449.69c-9.86-11.16,9.41-25.19,17.1-11.61,6.24,11.02-9.72,19.96-17.1,11.61Z"/><path d="M434,677v37c-3.42,1.34-3.22-2.63-4.55-2.97s-5,3.03-7.95,3.03c-13.59-.01-12.83-27.14,2.01-26.16,2.54.17,3.88,2.47,6.49,2.1l.95-12.55,3.06-.44ZM421.72,692.2c-10.68,2.41-4.86,24.88,6.26,16.28,3.95-3.06,4.26-18.66-6.26-16.28Z"/><path d="M318.31,214.31c7.71-7.15,23.1,1.5,16.15,12.64-8.66,13.87-26.76-2.8-16.15-12.64Z"/><path d="M79.71,433.21c17.93-4.11,17.26,22.72,1.03,19.57-10.85-2.1-10.43-17.42-1.03-19.57Z"/><path d="M177.69,707.71c7.22-8.8-10.59-10.43-13.97-13.65-9.92-9.44,9.3-22.78,18.28-12.54-1.09,4.95-4.82.94-7.56.53-4.03-.61-8.5.87-8.53,5.45-.06,6.95,15.08,5.14,16.89,13.22,2.97,13.28-14.65,17.03-22.79,8.77l2.47-2.49c3.96,2.57,11.64,5.07,15.22.72Z"/><path d="M445,701c-.86,5.5,1.99,8.83,7.51,9.07,2.36.1,9.05-3.38,9.46-.57s-7.15,4.6-9.48,4.6c-16.39-.03-16.11-26.63-.03-26.13,9.93.31,12.63,13.04,9.04,13.04h-16.5ZM445,697.99c2.15-.32,13.85,1.07,13.97-1.49-2.44-6.98-13.87-6.33-13.97,1.49Z"/><path d="M335.73,688.23c17.35-3.57,20.42,23.56,4.69,25.73s-19.27-22.73-4.69-25.73ZM343.71,693.3c-14.57-8.09-18.78,17.38-4.23,16.74,8.09-.36,8.22-11.6,4.23-16.74Z"/><path d="M360,688v16.5c0,8.36,13,5.33,13,2v-17c0-1.75,5-2.59,5,1v22l-2.49,1.5-2.96-3.04c-8.6,6.01-15.47,3.05-16.53-7.47-.4-4.04-1.76-17,3.99-15.49Z"/><path d="M226,712.5c-1.34,4.68-4.21-1.42-4.54-1.5-1.05-.25-16.43,8.97-15.55-4.51.51-7.81,15.3-6.35,15.99-9.07,1.9-7.46-10.24-5.15-13.89-3.43-2.64-2.65,8.06-9.75,15.04-3.54.67.59,2.96,3.57,2.96,4.05,0,4,.81,15.17,0,18ZM220.73,708.74c8.51-9.03-14.67-8.45-10.26.26,1.68,3.32,8.27,1.85,10.26-.26Z"/><path d="M385,689.5l2.49-1.5,2.03,3.02c4.29-2.73,8.72-4.81,13.46-1.5.75.52,3.02,3.43,3.02,3.98v20.5l-3.06-.44-.79-1.21c-1.73-5.58,3.92-22.54-7.43-20.17-1.36.28-5.73,3.55-5.73,4.32v17.5c-1.16.4-4-.44-4-1.5v-23Z"/><path d="M234.86,688.14c.57.36,3.98,10.52,4.96,12.53.67,1.36,1.92,5.81,3.67,5.33,1-.27,5.09-14.22,6.63-16.39,1.22-1.73,1.75-1.87,3.88-1.61-.67,4.45-12.77,34.24-14.52,34.97-.44.18-2.48.4-2.49-.49-.28-2.97,2.35-5.78,2.82-8.25,1.23-6.45-7.97-18.08-8.79-24.78-.28-2.31,2.95-1.89,3.84-1.32Z"/><path d="M194.99,680l.44,7.06c1.25,1.76,7.08.05,7.56,2.45.76,3.78-7.19,1.25-7.86,4.12l.36,14.35c1.83,3.82,6.96-.42,7.49,2.52.61,3.34-8.81,5.59-11.26.25-2.05-4.47-.06-13.11-.68-18.14l-4.05-2.13c-1.1-2.01,3.57-1.81,4.51-3.47,1.26-2.21-.92-7.26,3.47-7.01Z"/><path d="M309,689.5l2.49-1.5,2.03,3.02c3.27-1.62,5.41-3.83,9.48-3.02v3.99c-2.28-1.09-9,1.35-9,3.5v17c0,1.88-5,1.88-5,0v-23Z"/></svg>